<svg width="191" height="32" viewBox="0 0 191 32" fill="none" xmlns="http://www.w3.org/2000/svg">
    <rect width="191" height="32" rx="16" fill="#1F2A37" />
    <line x1="35.5" y1="10" x2="35.5" y2="18" stroke="#76A9FA" />
    <line x1="43.5" y1="12" x2="43.5" y2="18" stroke="white" />
    <line x1="51.5" y1="12" x2="51.5" y2="18" stroke="white" />
    <line x1="59.5" y1="12" x2="59.5" y2="18" stroke="white" />
    <line x1="67.5" y1="12" x2="67.5" y2="18" stroke="white" />
    <line x1="75.5" y1="10" x2="75.5" y2="18" stroke="#76A9FA" />
    <line x1="83.5" y1="12" x2="83.5" y2="18" stroke="white" />
    <line x1="91.5" y1="12" x2="91.5" y2="18" stroke="white" />
    <line x1="99.5" y1="12" x2="99.5" y2="18" stroke="white" />
    <line x1="107.5" y1="12" x2="107.5" y2="18" stroke="white" />
    <line x1="115.5" y1="10" x2="115.5" y2="18" stroke="#76A9FA" />
    <line x1="123.5" y1="12" x2="123.5" y2="18" stroke="white" />
    <line x1="131.5" y1="12" x2="131.5" y2="18" stroke="white" />
    <line x1="139.5" y1="12" x2="139.5" y2="18" stroke="white" />
    <line x1="147.5" y1="12" x2="147.5" y2="18" stroke="white" />
    <line x1="155.5" y1="10" x2="155.5" y2="18" stroke="#76A9FA" />
</svg>
    