<svg width="48" height="48" viewBox="0 0 48 48" fill="none" xmlns="http://www.w3.org/2000/svg">
<rect width="48" height="48" rx="4" fill="#1F2A37"/>
<path d="M25 17H16C14.8954 17 14 17.8954 14 19V29C14 30.1046 14.8954 31 16 31H25C26.1046 31 27 30.1046 27 29V19C27 17.8954 26.1046 17 25 17Z" fill="#F9FAFB"/>
<path d="M33.5 18.3C33.3485 18.2113 33.1763 18.1641 33.0008 18.163C32.8253 18.162 32.6525 18.2071 32.5 18.294L29 20.284V27.817L32.465 30.017C32.6166 30.113 32.7912 30.1664 32.9706 30.1717C33.15 30.177 33.3275 30.1339 33.4844 30.047C33.6414 29.9601 33.7721 29.8325 33.8628 29.6777C33.9535 29.5228 34.0009 29.3464 34 29.167V19.167C34.0002 18.9913 33.954 18.8187 33.8663 18.6664C33.7785 18.5142 33.6522 18.3879 33.5 18.3Z" fill="#F9FAFB"/>
</svg>
